<svg width="390" height="90" viewBox="0 0 390 90" fill="none" xmlns="http://www.w3.org/2000/svg">
<path d="M73.7856 10.5215L64.8459 0.0712891H12.5329L0 88.8948H52.313L64.1911 78.4446L67.4617 55.3687L58.5251 44.9185L70.4033 34.4683L73.7824 10.5215H73.7856ZM40.2783 62.7821H29.8023L31.3035 52.3096H41.8018L40.2783 62.7821ZM43.929 36.6566H33.453L34.9541 26.184H45.4525L43.929 36.6566Z" fill="url(#paint0_linear_1236_2911)"/>
<path opacity="0.34" d="M84.4819 10.4502L75.5422 0H23.2292L10.6963 88.8236H63.0093L74.8874 78.3734L78.158 55.2974L69.2214 44.8472L81.0995 34.397L84.4787 10.4502H84.4819Z" fill="url(#paint1_linear_1236_2911)"/>
<path opacity="0.24" d="M97.7949 10.4502L88.8551 0H50.6628L38.1299 88.8236H76.3222L88.2004 78.3734L91.4709 55.2974L82.5344 44.8472L94.4125 34.397L97.7917 10.4502H97.7949Z" fill="url(#paint2_linear_1236_2911)"/>
<path d="M118.405 0L106.605 89.1553H120.369H132.103L139.397 37.5072L148.363 47.9733L160.392 37.5072L153.066 88.9703H179.308L191.883 0H170.888L152.957 15.7008L139.397 0H118.405Z" fill="white"/>
<path d="M220.946 0L197.015 20.9329L187.398 88.9695H213.625L217.34 62.8018H227.83L224.115 88.9695H250.342L262.91 0H220.946ZM230.017 47.1037H219.527L221.714 31.4025L227.724 26.1677H232.971L230.02 47.1005L230.017 47.1037Z" fill="white"/>
<path d="M273.21 0L260.664 88.9695H308.053L319.718 78.7012L321.971 62.8027H290.557L299.391 0H273.21Z" fill="white"/>
<path d="M340.495 0L327.952 88.9695H375.34L387.002 78.7012L389.259 62.8027H357.841L366.675 0H340.495Z" fill="white"/>
<defs>
<linearGradient id="paint0_linear_1236_2911" x1="36.8928" y1="0.0712891" x2="36.8928" y2="88.8948" gradientUnits="userSpaceOnUse">
<stop stop-color="#F93278"/>
<stop offset="1" stop-color="#FA543E"/>
</linearGradient>
<linearGradient id="paint1_linear_1236_2911" x1="49.6434" y1="2.16919" x2="49.6434" y2="90.9927" gradientUnits="userSpaceOnUse">
<stop stop-color="#F93278"/>
<stop offset="1" stop-color="#FA543E"/>
</linearGradient>
<linearGradient id="paint2_linear_1236_2911" x1="60.9021" y1="0" x2="60.9021" y2="88.8236" gradientUnits="userSpaceOnUse">
<stop stop-color="#F93278"/>
<stop offset="1" stop-color="#FA543E"/>
</linearGradient>
</defs>
</svg>
