<svg xmlns="http://www.w3.org/2000/svg" xmlns:xlink="http://www.w3.org/1999/xlink" width="500" zoomAndPan="magnify" viewBox="0 0 375 95.999999" height="128" preserveAspectRatio="xMidYMid meet" version="1.0"><defs><g/></defs><g fill="#ff3131" fill-opacity="0.4196"><g transform="translate(39.425306, 81.263217)"><g><path d="M 16.75 0.640625 C 12.132812 0.640625 8.484375 -0.550781 5.796875 -2.9375 C 3.109375 -5.320312 1.765625 -8.503906 1.765625 -12.484375 C 1.765625 -12.859375 1.820312 -13.53125 1.9375 -14.5 L 2.25 -16.984375 C 2.300781 -17.367188 2.445312 -17.664062 2.6875 -17.875 C 2.9375 -18.09375 3.222656 -18.203125 3.546875 -18.203125 L 15.78125 -18.203125 C 16.101562 -18.203125 16.359375 -18.09375 16.546875 -17.875 C 16.734375 -17.664062 16.800781 -17.367188 16.75 -16.984375 L 16.59375 -15.21875 C 16.476562 -14.363281 16.582031 -13.664062 16.90625 -13.125 C 17.226562 -12.59375 17.710938 -12.328125 18.359375 -12.328125 C 19.054688 -12.328125 19.644531 -12.617188 20.125 -13.203125 C 20.613281 -13.796875 20.859375 -14.519531 20.859375 -15.375 C 20.859375 -16.1875 20.46875 -17.019531 19.6875 -17.875 C 18.90625 -18.738281 17.414062 -20.054688 15.21875 -21.828125 C 13.070312 -23.597656 11.300781 -25.164062 9.90625 -26.53125 C 8.507812 -27.90625 7.300781 -29.597656 6.28125 -31.609375 C 5.257812 -33.617188 4.75 -35.914062 4.75 -38.5 C 4.75 -38.976562 4.800781 -39.804688 4.90625 -40.984375 C 5.5 -45.765625 7.484375 -49.628906 10.859375 -52.578125 C 14.242188 -55.535156 18.460938 -57.015625 23.515625 -57.015625 C 28.128906 -57.015625 31.765625 -55.78125 34.421875 -53.3125 C 37.078125 -50.84375 38.40625 -47.515625 38.40625 -43.328125 C 38.40625 -42.835938 38.351562 -42.054688 38.25 -40.984375 L 38.015625 -39.21875 C 37.960938 -38.84375 37.8125 -38.546875 37.5625 -38.328125 C 37.320312 -38.117188 37.039062 -38.015625 36.71875 -38.015625 L 24.5625 -38.015625 C 24.238281 -38.015625 23.984375 -38.117188 23.796875 -38.328125 C 23.609375 -38.546875 23.539062 -38.84375 23.59375 -39.21875 L 23.84375 -41.3125 C 23.894531 -42.113281 23.742188 -42.769531 23.390625 -43.28125 C 23.046875 -43.789062 22.550781 -44.046875 21.90625 -44.046875 C 21.15625 -44.046875 20.535156 -43.722656 20.046875 -43.078125 C 19.566406 -42.441406 19.328125 -41.582031 19.328125 -40.5 C 19.328125 -39.59375 19.703125 -38.65625 20.453125 -37.6875 C 21.203125 -36.71875 22.597656 -35.375 24.640625 -33.65625 C 27.378906 -31.351562 29.472656 -29.488281 30.921875 -28.0625 C 32.367188 -26.644531 33.507812 -25.085938 34.34375 -23.390625 C 35.175781 -21.703125 35.59375 -19.785156 35.59375 -17.640625 C 35.59375 -17.203125 35.539062 -16.445312 35.4375 -15.375 C 34.789062 -10.488281 32.757812 -6.597656 29.34375 -3.703125 C 25.9375 -0.804688 21.738281 0.640625 16.75 0.640625 Z M 16.75 0.640625 "/></g></g></g><g fill="#ff3131" fill-opacity="0.4196"><g transform="translate(75.583804, 81.263217)"><g><path d="M 27.0625 -42.515625 C 33.445312 -42.515625 36.640625 -38.921875 36.640625 -31.734375 C 36.640625 -30.546875 36.5625 -29.3125 36.40625 -28.03125 L 33.09375 -1.203125 C 33.039062 -0.828125 32.90625 -0.53125 32.6875 -0.3125 C 32.476562 -0.101562 32.1875 0 31.8125 0 L 19.484375 0 C 19.109375 0 18.828125 -0.101562 18.640625 -0.3125 C 18.453125 -0.53125 18.382812 -0.828125 18.4375 -1.203125 L 21.578125 -26.984375 C 21.628906 -27.191406 21.65625 -27.457031 21.65625 -27.78125 C 21.65625 -28.96875 21.203125 -29.5625 20.296875 -29.5625 C 19.109375 -29.5625 18.382812 -28.703125 18.125 -26.984375 L 14.984375 -1.203125 C 14.921875 -0.828125 14.769531 -0.53125 14.53125 -0.3125 C 14.289062 -0.101562 14.007812 0 13.6875 0 L 1.28125 0 C 0.96875 0 0.710938 -0.101562 0.515625 -0.3125 C 0.328125 -0.53125 0.265625 -0.828125 0.328125 -1.203125 L 6.921875 -55.15625 C 6.972656 -55.539062 7.117188 -55.835938 7.359375 -56.046875 C 7.609375 -56.265625 7.894531 -56.375 8.21875 -56.375 L 20.609375 -56.375 C 20.929688 -56.375 21.1875 -56.265625 21.375 -56.046875 C 21.5625 -55.835938 21.628906 -55.539062 21.578125 -55.15625 L 19.65625 -39.375 C 19.65625 -39.269531 19.707031 -39.21875 19.8125 -39.21875 C 20.03125 -39.21875 20.296875 -39.40625 20.609375 -39.78125 C 22.390625 -41.601562 24.539062 -42.515625 27.0625 -42.515625 Z M 27.0625 -42.515625 "/></g></g></g><g fill="#ff3131" fill-opacity="0.4196"><g transform="translate(111.661771, 81.263217)"><g><path d="M 16.421875 0.640625 C 11.597656 0.640625 7.882812 -0.40625 5.28125 -2.5 C 2.675781 -4.59375 1.375 -7.570312 1.375 -11.4375 C 1.375 -11.863281 1.425781 -12.613281 1.53125 -13.6875 L 3.296875 -28.1875 C 3.835938 -32.53125 5.742188 -36.003906 9.015625 -38.609375 C 12.296875 -41.210938 16.539062 -42.515625 21.75 -42.515625 C 26.519531 -42.515625 30.191406 -41.414062 32.765625 -39.21875 C 35.347656 -37.019531 36.640625 -34.039062 36.640625 -30.28125 C 36.640625 -29.851562 36.585938 -29.15625 36.484375 -28.1875 L 34.703125 -13.6875 C 34.117188 -9.125 32.253906 -5.59375 29.109375 -3.09375 C 25.972656 -0.601562 21.742188 0.640625 16.421875 0.640625 Z M 17.953125 -12.328125 C 18.492188 -12.328125 18.976562 -12.566406 19.40625 -13.046875 C 19.832031 -13.523438 20.101562 -14.140625 20.21875 -14.890625 L 21.65625 -26.984375 C 21.71875 -27.734375 21.613281 -28.347656 21.34375 -28.828125 C 21.070312 -29.316406 20.671875 -29.5625 20.140625 -29.5625 C 19.546875 -29.5625 19.046875 -29.316406 18.640625 -28.828125 C 18.234375 -28.347656 17.976562 -27.734375 17.875 -26.984375 L 16.34375 -14.890625 C 16.238281 -14.140625 16.347656 -13.523438 16.671875 -13.046875 C 16.992188 -12.566406 17.421875 -12.328125 17.953125 -12.328125 Z M 17.953125 -12.328125 "/></g></g></g><g fill="#ff3131" fill-opacity="0.4196"><g transform="translate(147.659206, 81.263217)"><g><path d="M 34.953125 -18.359375 C 34.898438 -17.984375 34.765625 -17.6875 34.546875 -17.46875 C 34.328125 -17.257812 34.03125 -17.15625 33.65625 -17.15625 L 16.984375 -17.15625 C 16.878906 -17.15625 16.785156 -17.113281 16.703125 -17.03125 C 16.628906 -16.945312 16.59375 -16.851562 16.59375 -16.75 L 16.34375 -14.890625 C 16.238281 -14.140625 16.332031 -13.523438 16.625 -13.046875 C 16.925781 -12.566406 17.34375 -12.328125 17.875 -12.328125 C 18.789062 -12.328125 19.460938 -12.992188 19.890625 -14.328125 C 20.210938 -15.085938 20.695312 -15.4375 21.34375 -15.375 L 33.171875 -14.578125 C 33.984375 -14.472656 34.304688 -14.039062 34.140625 -13.28125 C 33.285156 -8.5625 31.40625 -5.0625 28.5 -2.78125 C 25.601562 -0.5 21.523438 0.640625 16.265625 0.640625 C 11.484375 0.640625 7.804688 -0.40625 5.234375 -2.5 C 2.660156 -4.59375 1.375 -7.570312 1.375 -11.4375 C 1.375 -11.863281 1.425781 -12.613281 1.53125 -13.6875 L 3.296875 -28.1875 C 3.835938 -32.53125 5.726562 -36.003906 8.96875 -38.609375 C 12.21875 -41.210938 16.421875 -42.515625 21.578125 -42.515625 C 26.304688 -42.515625 29.941406 -41.414062 32.484375 -39.21875 C 35.035156 -37.019531 36.3125 -34.039062 36.3125 -30.28125 C 36.3125 -29.851562 36.257812 -29.15625 36.15625 -28.1875 Z M 19.96875 -29.5625 C 19.4375 -29.5625 18.976562 -29.316406 18.59375 -28.828125 C 18.21875 -28.347656 17.976562 -27.734375 17.875 -26.984375 L 17.5625 -24.96875 C 17.5625 -24.695312 17.691406 -24.5625 17.953125 -24.5625 L 20.703125 -24.5625 C 20.960938 -24.5625 21.09375 -24.695312 21.09375 -24.96875 L 21.34375 -26.984375 L 21.421875 -27.625 C 21.421875 -28.15625 21.285156 -28.609375 21.015625 -28.984375 C 20.742188 -29.367188 20.394531 -29.5625 19.96875 -29.5625 Z M 19.96875 -29.5625 "/></g></g></g><g fill="#ff3131" fill-opacity="0.4196"><g transform="translate(183.17346, 81.263217)"><g><path d="M 15.78125 0.640625 C 11.164062 0.640625 7.515625 -0.40625 4.828125 -2.5 C 2.148438 -4.59375 0.8125 -7.382812 0.8125 -10.875 C 0.8125 -11.625 0.835938 -12.1875 0.890625 -12.5625 L 0.96875 -12.796875 C 1.019531 -13.179688 1.148438 -13.476562 1.359375 -13.6875 C 1.578125 -13.90625 1.875 -14.015625 2.25 -14.015625 L 14.015625 -14.015625 C 14.335938 -14.015625 14.601562 -13.921875 14.8125 -13.734375 C 15.03125 -13.546875 15.113281 -13.289062 15.0625 -12.96875 C 14.945312 -12.15625 15.09375 -11.535156 15.5 -11.109375 C 15.90625 -10.679688 16.398438 -10.46875 16.984375 -10.46875 C 17.523438 -10.46875 17.941406 -10.628906 18.234375 -10.953125 C 18.535156 -11.273438 18.6875 -11.675781 18.6875 -12.15625 C 18.6875 -12.851562 18.304688 -13.40625 17.546875 -13.8125 C 16.796875 -14.21875 15.617188 -14.660156 14.015625 -15.140625 L 11.84375 -15.859375 C 9.476562 -16.722656 7.472656 -18.023438 5.828125 -19.765625 C 4.191406 -21.515625 3.375 -23.890625 3.375 -26.890625 C 3.375 -27.753906 3.40625 -28.398438 3.46875 -28.828125 C 4 -33.015625 5.804688 -36.34375 8.890625 -38.8125 C 11.984375 -41.28125 15.835938 -42.515625 20.453125 -42.515625 C 24.804688 -42.515625 28.253906 -41.375 30.796875 -39.09375 C 33.347656 -36.8125 34.625 -33.765625 34.625 -29.953125 C 34.625 -29.523438 34.570312 -28.828125 34.46875 -27.859375 C 34.363281 -27.328125 33.929688 -27.0625 33.171875 -27.0625 L 21.828125 -27.0625 C 21.453125 -27.0625 21.171875 -27.164062 20.984375 -27.375 C 20.796875 -27.59375 20.726562 -27.890625 20.78125 -28.265625 L 20.859375 -28.75 L 20.859375 -29.15625 C 20.859375 -30.28125 20.375 -30.84375 19.40625 -30.84375 C 18.8125 -30.84375 18.335938 -30.585938 17.984375 -30.078125 C 17.640625 -29.566406 17.46875 -29.046875 17.46875 -28.515625 C 17.46875 -27.546875 17.925781 -26.78125 18.84375 -26.21875 C 19.757812 -25.65625 20.96875 -25.128906 22.46875 -24.640625 C 25.800781 -23.566406 28.472656 -22.25 30.484375 -20.6875 C 32.492188 -19.132812 33.5 -16.851562 33.5 -13.84375 C 33.5 -9.394531 31.847656 -5.867188 28.546875 -3.265625 C 25.242188 -0.660156 20.988281 0.640625 15.78125 0.640625 Z M 15.78125 0.640625 "/></g></g></g><g fill="#ff3131" fill-opacity="0.4196"><g transform="translate(217.399211, 81.263217)"><g><path d="M 9.09375 0 C 8.394531 0 7.992188 -0.347656 7.890625 -1.046875 L 4.34375 -40.59375 C 4.34375 -41.445312 4.75 -41.875 5.5625 -41.875 L 17.234375 -41.875 C 17.984375 -41.875 18.359375 -41.5 18.359375 -40.75 L 17.953125 -22.546875 C 17.898438 -22.492188 17.953125 -22.46875 18.109375 -22.46875 C 18.273438 -22.46875 18.359375 -22.492188 18.359375 -22.546875 L 22.546875 -40.75 C 22.765625 -41.5 23.25 -41.875 24 -41.875 L 34.390625 -41.875 C 35.140625 -41.875 35.488281 -41.5 35.4375 -40.75 L 35.359375 -22.546875 C 35.359375 -22.441406 35.410156 -22.390625 35.515625 -22.390625 C 35.617188 -22.390625 35.695312 -22.441406 35.75 -22.546875 L 39.859375 -40.75 C 40.023438 -41.5 40.457031 -41.875 41.15625 -41.875 L 52.59375 -41.71875 C 53.394531 -41.71875 53.6875 -41.285156 53.46875 -40.421875 L 40.421875 -1.046875 C 40.160156 -0.347656 39.679688 0 38.984375 0 L 27.0625 0 C 26.3125 0 25.9375 -0.375 25.9375 -1.125 L 25.765625 -15.296875 C 25.816406 -15.460938 25.765625 -15.546875 25.609375 -15.546875 C 25.453125 -15.546875 25.34375 -15.460938 25.28125 -15.296875 L 21.828125 -1.125 C 21.660156 -0.375 21.203125 0 20.453125 0 Z M 9.09375 0 "/></g></g></g><g fill="#ff3131" fill-opacity="0.4196"><g transform="translate(268.375451, 81.263217)"><g><path d="M 22.953125 -40.671875 C 23.003906 -41.046875 23.148438 -41.335938 23.390625 -41.546875 C 23.628906 -41.765625 23.910156 -41.875 24.234375 -41.875 L 36.640625 -41.875 C 36.960938 -41.875 37.21875 -41.765625 37.40625 -41.546875 C 37.59375 -41.335938 37.660156 -41.046875 37.609375 -40.671875 L 32.78125 -1.203125 C 32.726562 -0.828125 32.59375 -0.53125 32.375 -0.3125 C 32.15625 -0.101562 31.859375 0 31.484375 0 L 19.171875 0 C 18.796875 0 18.507812 -0.101562 18.3125 -0.3125 C 18.125 -0.53125 18.0625 -0.828125 18.125 -1.203125 L 18.359375 -2.984375 C 18.359375 -3.191406 18.300781 -3.296875 18.1875 -3.296875 C 18.082031 -3.296875 17.976562 -3.21875 17.875 -3.0625 C 16.050781 -0.59375 13.582031 0.640625 10.46875 0.640625 C 7.25 0.640625 4.910156 -0.242188 3.453125 -2.015625 C 2.003906 -3.785156 1.28125 -6.363281 1.28125 -9.75 C 1.28125 -11.03125 1.363281 -12.34375 1.53125 -13.6875 L 3.296875 -28.1875 C 3.890625 -32.96875 5.191406 -36.550781 7.203125 -38.9375 C 9.222656 -41.320312 12.082031 -42.515625 15.78125 -42.515625 C 18.894531 -42.515625 21.046875 -41.253906 22.234375 -38.734375 C 22.335938 -38.578125 22.441406 -38.507812 22.546875 -38.53125 C 22.648438 -38.5625 22.703125 -38.679688 22.703125 -38.890625 Z M 17.71875 -12.328125 C 18.25 -12.328125 18.703125 -12.566406 19.078125 -13.046875 C 19.460938 -13.523438 19.707031 -14.140625 19.8125 -14.890625 L 21.265625 -26.984375 C 21.367188 -27.734375 21.285156 -28.347656 21.015625 -28.828125 C 20.742188 -29.316406 20.34375 -29.5625 19.8125 -29.5625 C 19.269531 -29.5625 18.835938 -29.316406 18.515625 -28.828125 C 18.191406 -28.347656 17.976562 -27.734375 17.875 -26.984375 L 16.34375 -14.890625 C 16.238281 -14.085938 16.304688 -13.457031 16.546875 -13 C 16.785156 -12.550781 17.175781 -12.328125 17.71875 -12.328125 Z M 17.71875 -12.328125 "/></g></g></g><g fill="#ff3131" fill-opacity="0.4196"><g transform="translate(304.292342, 81.263217)"><g><path d="M 27.625 -42.515625 C 30.84375 -42.515625 33.175781 -41.628906 34.625 -39.859375 C 36.070312 -38.085938 36.796875 -35.507812 36.796875 -32.125 C 36.796875 -30.894531 36.71875 -29.582031 36.5625 -28.1875 L 34.796875 -13.6875 C 34.203125 -8.90625 32.894531 -5.320312 30.875 -2.9375 C 28.863281 -0.550781 26.007812 0.640625 22.3125 0.640625 C 19.195312 0.640625 17.046875 -0.617188 15.859375 -3.140625 C 15.753906 -3.296875 15.644531 -3.359375 15.53125 -3.328125 C 15.425781 -3.304688 15.375 -3.191406 15.375 -2.984375 L 13.375 13.28125 C 13.3125 13.65625 13.160156 13.953125 12.921875 14.171875 C 12.679688 14.390625 12.398438 14.5 12.078125 14.5 L -0.328125 14.5 C -0.648438 14.5 -0.90625 14.390625 -1.09375 14.171875 C -1.28125 13.953125 -1.34375 13.65625 -1.28125 13.28125 L 5.3125 -40.671875 C 5.363281 -41.046875 5.507812 -41.335938 5.75 -41.546875 C 6 -41.765625 6.285156 -41.875 6.609375 -41.875 L 19 -41.875 C 19.320312 -41.875 19.578125 -41.765625 19.765625 -41.546875 C 19.953125 -41.335938 20.019531 -41.046875 19.96875 -40.671875 L 19.8125 -38.890625 L 19.8125 -38.8125 C 19.8125 -38.757812 19.835938 -38.734375 19.890625 -38.734375 C 19.992188 -38.734375 20.289062 -38.972656 20.78125 -39.453125 C 22.601562 -41.492188 24.882812 -42.515625 27.625 -42.515625 Z M 21.75 -27.546875 C 21.75 -28.128906 21.625 -28.609375 21.375 -28.984375 C 21.132812 -29.367188 20.828125 -29.5625 20.453125 -29.5625 C 19.921875 -29.5625 19.453125 -29.332031 19.046875 -28.875 C 18.640625 -28.414062 18.382812 -27.785156 18.28125 -26.984375 L 16.828125 -14.890625 C 16.722656 -14.140625 16.800781 -13.523438 17.0625 -13.046875 C 17.332031 -12.566406 17.738281 -12.328125 18.28125 -12.328125 C 18.8125 -12.328125 19.253906 -12.550781 19.609375 -13 C 19.960938 -13.457031 20.191406 -14.085938 20.296875 -14.890625 L 21.75 -26.984375 Z M 21.75 -27.546875 "/></g></g></g><g fill="#ffffff" fill-opacity="1"><g transform="translate(37.03125, 79.107599)"><g><path d="M 16.75 0.640625 C 12.132812 0.640625 8.484375 -0.550781 5.796875 -2.9375 C 3.109375 -5.320312 1.765625 -8.503906 1.765625 -12.484375 C 1.765625 -12.859375 1.820312 -13.53125 1.9375 -14.5 L 2.25 -16.984375 C 2.300781 -17.367188 2.445312 -17.664062 2.6875 -17.875 C 2.9375 -18.09375 3.222656 -18.203125 3.546875 -18.203125 L 15.78125 -18.203125 C 16.101562 -18.203125 16.359375 -18.09375 16.546875 -17.875 C 16.734375 -17.664062 16.800781 -17.367188 16.75 -16.984375 L 16.59375 -15.21875 C 16.476562 -14.363281 16.582031 -13.664062 16.90625 -13.125 C 17.226562 -12.59375 17.710938 -12.328125 18.359375 -12.328125 C 19.054688 -12.328125 19.644531 -12.617188 20.125 -13.203125 C 20.613281 -13.796875 20.859375 -14.519531 20.859375 -15.375 C 20.859375 -16.1875 20.46875 -17.019531 19.6875 -17.875 C 18.90625 -18.738281 17.414062 -20.054688 15.21875 -21.828125 C 13.070312 -23.597656 11.300781 -25.164062 9.90625 -26.53125 C 8.507812 -27.90625 7.300781 -29.597656 6.28125 -31.609375 C 5.257812 -33.617188 4.75 -35.914062 4.75 -38.5 C 4.75 -38.976562 4.800781 -39.804688 4.90625 -40.984375 C 5.5 -45.765625 7.484375 -49.628906 10.859375 -52.578125 C 14.242188 -55.535156 18.460938 -57.015625 23.515625 -57.015625 C 28.128906 -57.015625 31.765625 -55.78125 34.421875 -53.3125 C 37.078125 -50.84375 38.40625 -47.515625 38.40625 -43.328125 C 38.40625 -42.835938 38.351562 -42.054688 38.25 -40.984375 L 38.015625 -39.21875 C 37.960938 -38.84375 37.8125 -38.546875 37.5625 -38.328125 C 37.320312 -38.117188 37.039062 -38.015625 36.71875 -38.015625 L 24.5625 -38.015625 C 24.238281 -38.015625 23.984375 -38.117188 23.796875 -38.328125 C 23.609375 -38.546875 23.539062 -38.84375 23.59375 -39.21875 L 23.84375 -41.3125 C 23.894531 -42.113281 23.742188 -42.769531 23.390625 -43.28125 C 23.046875 -43.789062 22.550781 -44.046875 21.90625 -44.046875 C 21.15625 -44.046875 20.535156 -43.722656 20.046875 -43.078125 C 19.566406 -42.441406 19.328125 -41.582031 19.328125 -40.5 C 19.328125 -39.59375 19.703125 -38.65625 20.453125 -37.6875 C 21.203125 -36.71875 22.597656 -35.375 24.640625 -33.65625 C 27.378906 -31.351562 29.472656 -29.488281 30.921875 -28.0625 C 32.367188 -26.644531 33.507812 -25.085938 34.34375 -23.390625 C 35.175781 -21.703125 35.59375 -19.785156 35.59375 -17.640625 C 35.59375 -17.203125 35.539062 -16.445312 35.4375 -15.375 C 34.789062 -10.488281 32.757812 -6.597656 29.34375 -3.703125 C 25.9375 -0.804688 21.738281 0.640625 16.75 0.640625 Z M 16.75 0.640625 "/></g></g></g><g fill="#ffffff" fill-opacity="1"><g transform="translate(73.189749, 79.107599)"><g><path d="M 27.0625 -42.515625 C 33.445312 -42.515625 36.640625 -38.921875 36.640625 -31.734375 C 36.640625 -30.546875 36.5625 -29.3125 36.40625 -28.03125 L 33.09375 -1.203125 C 33.039062 -0.828125 32.90625 -0.53125 32.6875 -0.3125 C 32.476562 -0.101562 32.1875 0 31.8125 0 L 19.484375 0 C 19.109375 0 18.828125 -0.101562 18.640625 -0.3125 C 18.453125 -0.53125 18.382812 -0.828125 18.4375 -1.203125 L 21.578125 -26.984375 C 21.628906 -27.191406 21.65625 -27.457031 21.65625 -27.78125 C 21.65625 -28.96875 21.203125 -29.5625 20.296875 -29.5625 C 19.109375 -29.5625 18.382812 -28.703125 18.125 -26.984375 L 14.984375 -1.203125 C 14.921875 -0.828125 14.769531 -0.53125 14.53125 -0.3125 C 14.289062 -0.101562 14.007812 0 13.6875 0 L 1.28125 0 C 0.96875 0 0.710938 -0.101562 0.515625 -0.3125 C 0.328125 -0.53125 0.265625 -0.828125 0.328125 -1.203125 L 6.921875 -55.15625 C 6.972656 -55.539062 7.117188 -55.835938 7.359375 -56.046875 C 7.609375 -56.265625 7.894531 -56.375 8.21875 -56.375 L 20.609375 -56.375 C 20.929688 -56.375 21.1875 -56.265625 21.375 -56.046875 C 21.5625 -55.835938 21.628906 -55.539062 21.578125 -55.15625 L 19.65625 -39.375 C 19.65625 -39.269531 19.707031 -39.21875 19.8125 -39.21875 C 20.03125 -39.21875 20.296875 -39.40625 20.609375 -39.78125 C 22.390625 -41.601562 24.539062 -42.515625 27.0625 -42.515625 Z M 27.0625 -42.515625 "/></g></g></g><g fill="#ffffff" fill-opacity="1"><g transform="translate(109.267715, 79.107599)"><g><path d="M 16.421875 0.640625 C 11.597656 0.640625 7.882812 -0.40625 5.28125 -2.5 C 2.675781 -4.59375 1.375 -7.570312 1.375 -11.4375 C 1.375 -11.863281 1.425781 -12.613281 1.53125 -13.6875 L 3.296875 -28.1875 C 3.835938 -32.53125 5.742188 -36.003906 9.015625 -38.609375 C 12.296875 -41.210938 16.539062 -42.515625 21.75 -42.515625 C 26.519531 -42.515625 30.191406 -41.414062 32.765625 -39.21875 C 35.347656 -37.019531 36.640625 -34.039062 36.640625 -30.28125 C 36.640625 -29.851562 36.585938 -29.15625 36.484375 -28.1875 L 34.703125 -13.6875 C 34.117188 -9.125 32.253906 -5.59375 29.109375 -3.09375 C 25.972656 -0.601562 21.742188 0.640625 16.421875 0.640625 Z M 17.953125 -12.328125 C 18.492188 -12.328125 18.976562 -12.566406 19.40625 -13.046875 C 19.832031 -13.523438 20.101562 -14.140625 20.21875 -14.890625 L 21.65625 -26.984375 C 21.71875 -27.734375 21.613281 -28.347656 21.34375 -28.828125 C 21.070312 -29.316406 20.671875 -29.5625 20.140625 -29.5625 C 19.546875 -29.5625 19.046875 -29.316406 18.640625 -28.828125 C 18.234375 -28.347656 17.976562 -27.734375 17.875 -26.984375 L 16.34375 -14.890625 C 16.238281 -14.140625 16.347656 -13.523438 16.671875 -13.046875 C 16.992188 -12.566406 17.421875 -12.328125 17.953125 -12.328125 Z M 17.953125 -12.328125 "/></g></g></g><g fill="#ffffff" fill-opacity="1"><g transform="translate(145.26515, 79.107599)"><g><path d="M 34.953125 -18.359375 C 34.898438 -17.984375 34.765625 -17.6875 34.546875 -17.46875 C 34.328125 -17.257812 34.03125 -17.15625 33.65625 -17.15625 L 16.984375 -17.15625 C 16.878906 -17.15625 16.785156 -17.113281 16.703125 -17.03125 C 16.628906 -16.945312 16.59375 -16.851562 16.59375 -16.75 L 16.34375 -14.890625 C 16.238281 -14.140625 16.332031 -13.523438 16.625 -13.046875 C 16.925781 -12.566406 17.34375 -12.328125 17.875 -12.328125 C 18.789062 -12.328125 19.460938 -12.992188 19.890625 -14.328125 C 20.210938 -15.085938 20.695312 -15.4375 21.34375 -15.375 L 33.171875 -14.578125 C 33.984375 -14.472656 34.304688 -14.039062 34.140625 -13.28125 C 33.285156 -8.5625 31.40625 -5.0625 28.5 -2.78125 C 25.601562 -0.5 21.523438 0.640625 16.265625 0.640625 C 11.484375 0.640625 7.804688 -0.40625 5.234375 -2.5 C 2.660156 -4.59375 1.375 -7.570312 1.375 -11.4375 C 1.375 -11.863281 1.425781 -12.613281 1.53125 -13.6875 L 3.296875 -28.1875 C 3.835938 -32.53125 5.726562 -36.003906 8.96875 -38.609375 C 12.21875 -41.210938 16.421875 -42.515625 21.578125 -42.515625 C 26.304688 -42.515625 29.941406 -41.414062 32.484375 -39.21875 C 35.035156 -37.019531 36.3125 -34.039062 36.3125 -30.28125 C 36.3125 -29.851562 36.257812 -29.15625 36.15625 -28.1875 Z M 19.96875 -29.5625 C 19.4375 -29.5625 18.976562 -29.316406 18.59375 -28.828125 C 18.21875 -28.347656 17.976562 -27.734375 17.875 -26.984375 L 17.5625 -24.96875 C 17.5625 -24.695312 17.691406 -24.5625 17.953125 -24.5625 L 20.703125 -24.5625 C 20.960938 -24.5625 21.09375 -24.695312 21.09375 -24.96875 L 21.34375 -26.984375 L 21.421875 -27.625 C 21.421875 -28.15625 21.285156 -28.609375 21.015625 -28.984375 C 20.742188 -29.367188 20.394531 -29.5625 19.96875 -29.5625 Z M 19.96875 -29.5625 "/></g></g></g><g fill="#ffffff" fill-opacity="1"><g transform="translate(180.779404, 79.107599)"><g><path d="M 15.78125 0.640625 C 11.164062 0.640625 7.515625 -0.40625 4.828125 -2.5 C 2.148438 -4.59375 0.8125 -7.382812 0.8125 -10.875 C 0.8125 -11.625 0.835938 -12.1875 0.890625 -12.5625 L 0.96875 -12.796875 C 1.019531 -13.179688 1.148438 -13.476562 1.359375 -13.6875 C 1.578125 -13.90625 1.875 -14.015625 2.25 -14.015625 L 14.015625 -14.015625 C 14.335938 -14.015625 14.601562 -13.921875 14.8125 -13.734375 C 15.03125 -13.546875 15.113281 -13.289062 15.0625 -12.96875 C 14.945312 -12.15625 15.09375 -11.535156 15.5 -11.109375 C 15.90625 -10.679688 16.398438 -10.46875 16.984375 -10.46875 C 17.523438 -10.46875 17.941406 -10.628906 18.234375 -10.953125 C 18.535156 -11.273438 18.6875 -11.675781 18.6875 -12.15625 C 18.6875 -12.851562 18.304688 -13.40625 17.546875 -13.8125 C 16.796875 -14.21875 15.617188 -14.660156 14.015625 -15.140625 L 11.84375 -15.859375 C 9.476562 -16.722656 7.472656 -18.023438 5.828125 -19.765625 C 4.191406 -21.515625 3.375 -23.890625 3.375 -26.890625 C 3.375 -27.753906 3.40625 -28.398438 3.46875 -28.828125 C 4 -33.015625 5.804688 -36.34375 8.890625 -38.8125 C 11.984375 -41.28125 15.835938 -42.515625 20.453125 -42.515625 C 24.804688 -42.515625 28.253906 -41.375 30.796875 -39.09375 C 33.347656 -36.8125 34.625 -33.765625 34.625 -29.953125 C 34.625 -29.523438 34.570312 -28.828125 34.46875 -27.859375 C 34.363281 -27.328125 33.929688 -27.0625 33.171875 -27.0625 L 21.828125 -27.0625 C 21.453125 -27.0625 21.171875 -27.164062 20.984375 -27.375 C 20.796875 -27.59375 20.726562 -27.890625 20.78125 -28.265625 L 20.859375 -28.75 L 20.859375 -29.15625 C 20.859375 -30.28125 20.375 -30.84375 19.40625 -30.84375 C 18.8125 -30.84375 18.335938 -30.585938 17.984375 -30.078125 C 17.640625 -29.566406 17.46875 -29.046875 17.46875 -28.515625 C 17.46875 -27.546875 17.925781 -26.78125 18.84375 -26.21875 C 19.757812 -25.65625 20.96875 -25.128906 22.46875 -24.640625 C 25.800781 -23.566406 28.472656 -22.25 30.484375 -20.6875 C 32.492188 -19.132812 33.5 -16.851562 33.5 -13.84375 C 33.5 -9.394531 31.847656 -5.867188 28.546875 -3.265625 C 25.242188 -0.660156 20.988281 0.640625 15.78125 0.640625 Z M 15.78125 0.640625 "/></g></g></g><g fill="#ffffff" fill-opacity="1"><g transform="translate(215.005156, 79.107599)"><g><path d="M 9.09375 0 C 8.394531 0 7.992188 -0.347656 7.890625 -1.046875 L 4.34375 -40.59375 C 4.34375 -41.445312 4.75 -41.875 5.5625 -41.875 L 17.234375 -41.875 C 17.984375 -41.875 18.359375 -41.5 18.359375 -40.75 L 17.953125 -22.546875 C 17.898438 -22.492188 17.953125 -22.46875 18.109375 -22.46875 C 18.273438 -22.46875 18.359375 -22.492188 18.359375 -22.546875 L 22.546875 -40.75 C 22.765625 -41.5 23.25 -41.875 24 -41.875 L 34.390625 -41.875 C 35.140625 -41.875 35.488281 -41.5 35.4375 -40.75 L 35.359375 -22.546875 C 35.359375 -22.441406 35.410156 -22.390625 35.515625 -22.390625 C 35.617188 -22.390625 35.695312 -22.441406 35.75 -22.546875 L 39.859375 -40.75 C 40.023438 -41.5 40.457031 -41.875 41.15625 -41.875 L 52.59375 -41.71875 C 53.394531 -41.71875 53.6875 -41.285156 53.46875 -40.421875 L 40.421875 -1.046875 C 40.160156 -0.347656 39.679688 0 38.984375 0 L 27.0625 0 C 26.3125 0 25.9375 -0.375 25.9375 -1.125 L 25.765625 -15.296875 C 25.816406 -15.460938 25.765625 -15.546875 25.609375 -15.546875 C 25.453125 -15.546875 25.34375 -15.460938 25.28125 -15.296875 L 21.828125 -1.125 C 21.660156 -0.375 21.203125 0 20.453125 0 Z M 9.09375 0 "/></g></g></g><g fill="#ffffff" fill-opacity="1"><g transform="translate(265.981395, 79.107599)"><g><path d="M 22.953125 -40.671875 C 23.003906 -41.046875 23.148438 -41.335938 23.390625 -41.546875 C 23.628906 -41.765625 23.910156 -41.875 24.234375 -41.875 L 36.640625 -41.875 C 36.960938 -41.875 37.21875 -41.765625 37.40625 -41.546875 C 37.59375 -41.335938 37.660156 -41.046875 37.609375 -40.671875 L 32.78125 -1.203125 C 32.726562 -0.828125 32.59375 -0.53125 32.375 -0.3125 C 32.15625 -0.101562 31.859375 0 31.484375 0 L 19.171875 0 C 18.796875 0 18.507812 -0.101562 18.3125 -0.3125 C 18.125 -0.53125 18.0625 -0.828125 18.125 -1.203125 L 18.359375 -2.984375 C 18.359375 -3.191406 18.300781 -3.296875 18.1875 -3.296875 C 18.082031 -3.296875 17.976562 -3.21875 17.875 -3.0625 C 16.050781 -0.59375 13.582031 0.640625 10.46875 0.640625 C 7.25 0.640625 4.910156 -0.242188 3.453125 -2.015625 C 2.003906 -3.785156 1.28125 -6.363281 1.28125 -9.75 C 1.28125 -11.03125 1.363281 -12.34375 1.53125 -13.6875 L 3.296875 -28.1875 C 3.890625 -32.96875 5.191406 -36.550781 7.203125 -38.9375 C 9.222656 -41.320312 12.082031 -42.515625 15.78125 -42.515625 C 18.894531 -42.515625 21.046875 -41.253906 22.234375 -38.734375 C 22.335938 -38.578125 22.441406 -38.507812 22.546875 -38.53125 C 22.648438 -38.5625 22.703125 -38.679688 22.703125 -38.890625 Z M 17.71875 -12.328125 C 18.25 -12.328125 18.703125 -12.566406 19.078125 -13.046875 C 19.460938 -13.523438 19.707031 -14.140625 19.8125 -14.890625 L 21.265625 -26.984375 C 21.367188 -27.734375 21.285156 -28.347656 21.015625 -28.828125 C 20.742188 -29.316406 20.34375 -29.5625 19.8125 -29.5625 C 19.269531 -29.5625 18.835938 -29.316406 18.515625 -28.828125 C 18.191406 -28.347656 17.976562 -27.734375 17.875 -26.984375 L 16.34375 -14.890625 C 16.238281 -14.085938 16.304688 -13.457031 16.546875 -13 C 16.785156 -12.550781 17.175781 -12.328125 17.71875 -12.328125 Z M 17.71875 -12.328125 "/></g></g></g><g fill="#ffffff" fill-opacity="1"><g transform="translate(301.898286, 79.107599)"><g><path d="M 27.625 -42.515625 C 30.84375 -42.515625 33.175781 -41.628906 34.625 -39.859375 C 36.070312 -38.085938 36.796875 -35.507812 36.796875 -32.125 C 36.796875 -30.894531 36.71875 -29.582031 36.5625 -28.1875 L 34.796875 -13.6875 C 34.203125 -8.90625 32.894531 -5.320312 30.875 -2.9375 C 28.863281 -0.550781 26.007812 0.640625 22.3125 0.640625 C 19.195312 0.640625 17.046875 -0.617188 15.859375 -3.140625 C 15.753906 -3.296875 15.644531 -3.359375 15.53125 -3.328125 C 15.425781 -3.304688 15.375 -3.191406 15.375 -2.984375 L 13.375 13.28125 C 13.3125 13.65625 13.160156 13.953125 12.921875 14.171875 C 12.679688 14.390625 12.398438 14.5 12.078125 14.5 L -0.328125 14.5 C -0.648438 14.5 -0.90625 14.390625 -1.09375 14.171875 C -1.28125 13.953125 -1.34375 13.65625 -1.28125 13.28125 L 5.3125 -40.671875 C 5.363281 -41.046875 5.507812 -41.335938 5.75 -41.546875 C 6 -41.765625 6.285156 -41.875 6.609375 -41.875 L 19 -41.875 C 19.320312 -41.875 19.578125 -41.765625 19.765625 -41.546875 C 19.953125 -41.335938 20.019531 -41.046875 19.96875 -40.671875 L 19.8125 -38.890625 L 19.8125 -38.8125 C 19.8125 -38.757812 19.835938 -38.734375 19.890625 -38.734375 C 19.992188 -38.734375 20.289062 -38.972656 20.78125 -39.453125 C 22.601562 -41.492188 24.882812 -42.515625 27.625 -42.515625 Z M 21.75 -27.546875 C 21.75 -28.128906 21.625 -28.609375 21.375 -28.984375 C 21.132812 -29.367188 20.828125 -29.5625 20.453125 -29.5625 C 19.921875 -29.5625 19.453125 -29.332031 19.046875 -28.875 C 18.640625 -28.414062 18.382812 -27.785156 18.28125 -26.984375 L 16.828125 -14.890625 C 16.722656 -14.140625 16.800781 -13.523438 17.0625 -13.046875 C 17.332031 -12.566406 17.738281 -12.328125 18.28125 -12.328125 C 18.8125 -12.328125 19.253906 -12.550781 19.609375 -13 C 19.960938 -13.457031 20.191406 -14.085938 20.296875 -14.890625 L 21.75 -26.984375 Z M 21.75 -27.546875 "/></g></g></g></svg>